<svg width="17" height="18" viewBox="0 0 17 18" fill="none" xmlns="http://www.w3.org/2000/svg">
<path d="M6.8 0.642334C3.6 0.642334 1 3.34633 1 6.67433C1 10.0023 3.6 12.7063 6.8 12.7063C8.26 12.7063 9.58 12.1447 10.6 11.2087L15.92 16.7415C16.06 16.9079 16.34 16.9079 16.48 16.7415C16.62 16.5751 16.62 16.3047 16.48 16.1383L11.18 10.6263C12.06 9.56553 12.6 8.17193 12.6 6.67433C12.6 3.34633 10 0.642334 6.8 0.642334ZM6.8 1.47433C9.56 1.47433 11.8 3.80393 11.8 6.67433C11.8 9.54473 9.56 11.8743 6.8 11.8743C4.04 11.8743 1.8 9.54473 1.8 6.67433C1.8 3.80393 4.04 1.47433 6.8 1.47433Z" fill="#3A3A3A" stroke="#3A3A3A" stroke-width="0.5" stroke-miterlimit="10"/>
</svg>
